# xmcd
#
# Track frame offsets: 
#        150
#        15690
#        30287
#        63575
#        82075
#        98399
#        116390
#        129368
#        148891
#        168616
#        185266
#
# Disc length: 2693 seconds
#
# Revision: 3
# Processed by: cddbd v1.5.2PL0 Copyright (c) Steve Scherf et al.
# Submitted via: ExactAudioCopyFreeDBPlugin 1.0
#
DISCID=890a830b
DTITLE=Bill Perry - Raw Deal
DYEAR=2004
DGENRE=Blues
TTITLE0=Bluesman
TTITLE1=Til The Money Runs Out
TTITLE2=Gotta Serve Somebody
TTITLE3=Going Down To Memphis
TTITLE4=Man On The Side
TTITLE5=Another Man
TTITLE6=Harlem Child
TTITLE7=Big Ass Green Van
TTITLE8=Live On
TTITLE9=Terrorists
TTITLE10=Paper Dragons
EXTD=YEAR: 2004
EXTT0=
EXTT1=
EXTT2=
EXTT3=
EXTT4=
EXTT5=
EXTT6=
EXTT7=
EXTT8=
EXTT9=
EXTT10=
PLAYORDER=
